<svg xmlns="http://www.w3.org/2000/svg" xmlns:xlink="http://www.w3.org/1999/xlink" viewBox="0 0 229.81 229.81"><defs><style>.cls-1{stroke:#422e82;stroke-width:7.81px;fill:url(#linear-gradient);}.cls-1,.cls-12{stroke-miterlimit:10;}.cls-2,.cls-5,.cls-6{font-size:26px;font-family:DINCondensed-Bold, DIN Condensed;}.cls-2,.cls-9{fill:#160034;}.cls-10,.cls-2,.cls-5,.cls-6,.cls-9{font-weight:700;}.cls-3{letter-spacing:-0.09em;}.cls-4{letter-spacing:0em;}.cls-5{fill:#ffc081;}.cls-6{fill:#ff00d5;}.cls-7{letter-spacing:-0.07em;}.cls-8{fill:#fff80b;}.cls-9{opacity:0.54;}.cls-10,.cls-9{font-size:167.87px;font-family:Roboto-Bold, Roboto;}.cls-10{opacity:0.7;fill:#00e6e8;}.cls-11{opacity:0.71;}.cls-12{stroke:#8afc12;stroke-width:3px;fill:url(#linear-gradient-2);}</style><linearGradient id="linear-gradient" x1="114.9" y1="218.28" x2="114.9" y2="15.35" gradientUnits="userSpaceOnUse"><stop offset="0" stop-color="#ffbb84"/><stop offset="0.17" stop-color="#f07"/><stop offset="0.73" stop-color="#3e0059"/><stop offset="0.97" stop-color="#0e0b1d"/></linearGradient><linearGradient id="linear-gradient-2" x1="117.7" y1="172.85" x2="117.7" y2="53.5" gradientUnits="userSpaceOnUse"><stop offset="0" stop-color="#ff00d5"/><stop offset="1" stop-color="#321e5a"/></linearGradient></defs><g id="Layer_2" data-name="Layer 2"><g id="Layer_1-2" data-name="Layer 1"><rect class="cls-1" x="3.9" y="3.9" width="222" height="222"/><text class="cls-2" transform="translate(39.78 211.38) rotate(-90)">REAL<tspan class="cls-3" x="40.9" y="0">L</tspan><tspan class="cls-4" x="48.13" y="0">Y</tspan></text><text class="cls-5" transform="translate(39.78 141.55) rotate(-90)">RICH</text><text class="cls-6" transform="translate(39.78 93.62) rotate(-90)">RESU<tspan class="cls-7" x="42.33" y="0">L</tspan><tspan x="50.02" y="0">TS</tspan></text><path class="cls-8" d="M167.9,43.82a4.81,4.81,0,0,0,2.39-.42c.44-.27.66-.92.66-1.92V38a1.86,1.86,0,0,0-.51-1.36,1.83,1.83,0,0,0-1.37-.53,1.63,1.63,0,0,0-1.45.64,2.23,2.23,0,0,0-.44,1.25V40.2h-3.84V38a5.58,5.58,0,0,1,.45-2.22A5.42,5.42,0,0,1,165,34a6.13,6.13,0,0,1,1.84-1.21,5.7,5.7,0,0,1,2.26-.45,5.05,5.05,0,0,1,2.62.62,6.25,6.25,0,0,1,1.56,1.26,9.86,9.86,0,0,1,.66.91,4.07,4.07,0,0,1,.47,1.09,14.82,14.82,0,0,1,.34,3.69c0,.93,0,1.68,0,2.26a4.73,4.73,0,0,1-.29,1.43,2.89,2.89,0,0,1-.73,1,8.43,8.43,0,0,1-1.3.9,7.19,7.19,0,0,1,1.37,1.06,3,3,0,0,1,.7,1.13,5.63,5.63,0,0,1,.26,1.6c0,.61,0,1.4,0,2.35s0,1.61,0,2.19a13.12,13.12,0,0,1-.17,1.43,4.32,4.32,0,0,1-.31,1,4.85,4.85,0,0,1-.49.87A6,6,0,0,1,172,58.86a5.4,5.4,0,0,1-2.92.7,6.82,6.82,0,0,1-1.92-.3,5.14,5.14,0,0,1-3.22-2.75,5.87,5.87,0,0,1-.55-2.68V51.65h3.84v2a2.16,2.16,0,0,0,.51,1.48,1.9,1.9,0,0,0,2.75,0,2.29,2.29,0,0,0,.51-1.56V49.73a2.63,2.63,0,0,0-.6-2.07,1.72,1.72,0,0,0-.93-.38,12.49,12.49,0,0,0-1.52-.07Z"/><text class="cls-9" transform="translate(71.58 182.91)">R</text><text class="cls-10" transform="translate(66.68 179.04)">R</text><g class="cls-11"><path class="cls-12" d="M115.41,129.16H95.82v43.69H71.23V53.5h44.34q21.15,0,32.62,9.43t11.48,26.64q0,12.21-5.29,20.37t-16,13l25.82,48.77v1.15h-26.4ZM95.82,109.24h19.83q9.27,0,14.35-4.71t5.08-13q0-8.45-4.8-13.28t-14.71-4.84H95.82Z"/></g></g></g></svg>